Coordinates
version=1
nRows=38
nColumns=38
inDegrees=no

Units are S.I. units (second, meters, Newtons, ...)
If the header above contains a line with 'inDegrees', this indicates whether rotational values are in degrees (yes) or radians (no).

endheader
time	pelvis_tilt	pelvis_list	pelvis_rotation	pelvis_tx	pelvis_ty	pelvis_tz	hip_flexion_r	hip_adduction_r	hip_rotation_r	knee_angle_r	ankle_angle_r	subtalar_angle_r	mtp_angle_r	hip_flexion_l	hip_adduction_l	hip_rotation_l	knee_angle_l	ankle_angle_l	subtalar_angle_l	mtp_angle_l	lumbar_extension	lumbar_bending	lumbar_rotation	arm_flex_r	arm_add_r	arm_rot_r	elbow_flex_r	pro_sup_r	wrist_flex_r	wrist_dev_r	arm_flex_l	arm_add_l	arm_rot_l	elbow_flex_l	pro_sup_l	wrist_flex_l	wrist_dev_l
0	2.73313	1.40789	-1.05275	0.785663	-0.727571	0.997401	0.370224	0.0881828	-0.194323	0.750458	-0.235908	0	0	-0.156697	-0.131616	-0.142316	1.10891	-0.17279	0	0	-0.3884	0.25503	0.285054	-0.240848	-0.658063	-0.184667	1.78015	0.639548	0	0	0.514589	-0.464225	0.578898	1.16999	0.663211	0	0
0.01	2.70855	1.41624	-1.03357	0.787356	-0.716855	0.997295	0.371981	0.0927985	-0.185412	0.755349	-0.22713	0	0	-0.122468	-0.127081	-0.127832	1.15241	-0.151071	0	0	-0.380634	0.251437	0.289965	-0.241896	-0.654758	-0.186078	1.78219	0.626178	0	0	0.512199	-0.464398	0.5767	1.17019	0.65802	0	0
0.02	2.71036	1.41746	-1.04128	0.789039	-0.705939	0.998303	0.363113	0.0974279	-0.178089	0.758043	-0.218699	0	0	-0.0996063	-0.1216	-0.118751	1.18594	-0.132529	0	0	-0.381513	0.247219	0.295569	-0.241316	-0.652416	-0.186117	1.78313	0.616753	0	0	0.511297	-0.46531	0.575598	1.16974	0.657551	0	0
0.03	2.72869	1.41687	-1.06551	0.790643	-0.695079	0.999916	0.349883	0.100786	-0.170675	0.758527	-0.209908	0	0	-0.0797842	-0.114284	-0.112728	1.21418	-0.11702	0	0	-0.385502	0.241376	0.301315	-0.239824	-0.650238	-0.185103	1.7832	0.608063	0	0	0.511187	-0.4659	0.57467	1.16911	0.658164	0	0
0.04	2.75606	1.41567	-1.09838	0.792089	-0.684328	1.00189	0.334183	0.102499	-0.163978	0.75692	-0.199253	0	0	-0.0609734	-0.105281	-0.10668	1.23826	-0.102101	0	0	-0.390696	0.230891	0.314182	-0.30863	-0.715611	-0.204347	1.85736	0.3095	0	0	0.520645	-0.462253	0.58561	1.16612	0.65746	0	0
0.05	2.78322	1.4145	-1.13065	0.793401	-0.673626	1.00405	0.317406	0.103078	-0.159284	0.753419	-0.194188	0	0	-0.0418848	-0.096238	-0.100209	1.25793	-0.0908247	0	0	-0.39496	0.224011	0.317694	-0.305712	-0.714383	-0.201676	1.85615	0.303487	0	0	0.520629	-0.462866	0.584662	1.16504	0.656821	0	0
0.06	2.80326	1.41468	-1.15532	0.79452	-0.662995	1.00627	0.30121	0.10287	-0.156797	0.748044	-0.188499	0	0	-0.0213469	-0.0862122	-0.0901566	1.27231	-0.0795601	0	0	-0.396897	0.217819	0.321138	-0.302726	-0.714001	-0.197786	1.85363	0.300391	0	0	0.520576	-0.462696	0.584308	1.16298	0.655888	0	0
0.07	2.81755	1.4155	-1.17429	0.795578	-0.652344	1.00853	0.28478	0.102763	-0.156092	0.740364	-0.182817	0	0	0.000374184	-0.0788628	-0.0829383	1.2819	-0.0715014	0	0	-0.397176	0.212563	0.324514	-0.300864	-0.713068	-0.195063	1.85148	0.299067	0	0	0.519541	-0.462644	0.583493	1.16065	0.654615	0	0
0.08	2.82726	1.41708	-1.18871	0.796592	-0.641691	1.01076	0.268663	0.103294	-0.15547	0.731347	-0.177234	0	0	0.0230395	-0.072785	-0.0770301	1.28659	-0.0657431	0	0	-0.396119	0.207658	0.32813	-0.299112	-0.71286	-0.191334	1.84921	0.299016	0	0	0.518883	-0.463367	0.583982	1.1585	0.656051	0	0
0.09	2.83324	1.41917	-1.1999	0.797615	-0.631062	1.01299	0.252935	0.104524	-0.154929	0.720768	-0.172514	0	0	0.0460495	-0.0683435	-0.0742065	1.28657	-0.0613893	0	0	-0.394217	0.2031	0.331936	-0.29752	-0.711537	-0.188382	1.84693	0.299046	0	0	0.517587	-0.464081	0.583713	1.15693	0.657791	0	0
0.1	2.84022	1.42137	-1.21266	0.798622	-0.620497	1.0153	0.237373	0.104939	-0.156955	0.708751	-0.169642	0	0	0.0684377	-0.0646095	-0.0743849	1.28178	-0.0580021	0	0	-0.392364	0.198511	0.336143	-0.296442	-0.709096	-0.186886	1.84504	0.299297	0	0	0.515192	-0.464211	0.581529	1.15617	0.657344	0	0
0.11	2.85198	1.42356	-1.23066	0.799552	-0.60997	1.01762	0.221377	0.104499	-0.159486	0.696089	-0.166744	0	0	0.0897044	-0.0611083	-0.0777935	1.27273	-0.0551889	0	0	-0.39059	0.193117	0.341026	-0.295376	-0.708278	-0.184236	1.84274	0.301677	0	0	0.513279	-0.464364	0.580201	1.15565	0.656487	0	0
0.12	2.86777	1.42504	-1.25331	0.800399	-0.599512	1.01995	0.204207	0.103461	-0.161597	0.68342	-0.164418	0	0	0.109101	-0.058241	-0.084677	1.25984	-0.0530522	0	0	-0.389831	0.187348	0.346575	-0.29481	-0.708116	-0.182266	1.84091	0.304353	0	0	0.51175	-0.464929	0.579362	1.15596	0.657214	0	0
0.13	2.88511	1.42553	-1.27815	0.801213	-0.589127	1.0223	0.185664	0.102123	-0.162764	0.670862	-0.162301	0	0	0.126465	-0.0566543	-0.0950294	1.24326	-0.0521026	0	0	-0.390261	0.181674	0.35286	-0.293715	-0.706775	-0.180754	1.83946	0.306456	0	0	0.510356	-0.465739	0.578353	1.1569	0.659588	0	0
0.14	2.90389	1.42513	-1.30466	0.801977	-0.578824	1.02466	0.166022	0.100331	-0.163628	0.658329	-0.160715	0	0	0.142105	-0.0565755	-0.108984	1.22355	-0.0532972	0	0	-0.391896	0.175759	0.359511	-0.293073	-0.705872	-0.180159	1.83868	0.307394	0	0	0.508566	-0.466692	0.575744	1.1594	0.661864	0	0
0.15	2.92279	1.42438	-1.33102	0.802637	-0.568579	1.02696	0.146165	0.0981343	-0.164524	0.645784	-0.159783	0	0	0.156733	-0.0581016	-0.126689	1.20159	-0.0565854	0	0	-0.393895	0.170186	0.36586	-0.292956	-0.705677	-0.180146	1.83887	0.308151	0	0	0.506982	-0.467234	0.57304	1.16197	0.664139	0	0
0.16	2.9394	1.42352	-1.35465	0.803146	-0.558403	1.02909	0.126974	0.0956063	-0.165946	0.633473	-0.15953	0	0	0.170808	-0.0615491	-0.148489	1.17759	-0.062092	0	0	-0.395792	0.165503	0.37183	-0.293414	-0.705326	-0.181209	1.84	0.308738	0	0	0.505734	-0.467198	0.570519	1.16405	0.666672	0	0
0.17	2.95352	1.42231	-1.37482	0.803419	-0.548316	1.03109	0.107843	0.0927926	-0.168852	0.621577	-0.159765	0	0	0.183954	-0.0667042	-0.173571	1.15128	-0.0694175	0	0	-0.397802	0.161866	0.377648	-0.294434	-0.705496	-0.182869	1.84168	0.3087	0	0	0.504289	-0.465761	0.566545	1.16623	0.665675	0	0
0.18	2.96612	1.42033	-1.39255	0.80348	-0.538299	1.03299	0.0880864	0.08983	-0.172904	0.610349	-0.160065	0	0	0.195109	-0.0730442	-0.200795	1.12238	-0.0784817	0	0	-0.400581	0.158793	0.382759	-0.295551	-0.705771	-0.185101	1.84363	0.308346	0	0	0.503121	-0.465167	0.562863	1.1691	0.664111	0	0
0.19	2.97448	1.41937	-1.40591	0.803491	-0.528137	1.03463	0.0695464	0.0872398	-0.176738	0.599365	-0.159735	0	0	0.205635	-0.0803234	-0.229649	1.09045	-0.0879942	0	0	-0.401374	0.156452	0.387486	-0.296564	-0.706159	-0.186603	1.84477	0.309141	0	0	0.501685	-0.464236	0.559458	1.17077	0.663316	0	0
0.2	2.97991	1.41935	-1.41606	0.803447	-0.517891	1.03601	0.0521073	0.0852993	-0.178885	0.588293	-0.158999	0	0	0.215349	-0.0873925	-0.258081	1.0548	-0.0978498	0	0	-0.400497	0.154717	0.391467	-0.297762	-0.70561	-0.188741	1.8458	0.310587	0	0	0.499941	-0.463399	0.556224	1.17183	0.663773	0	0
0.21	2.98144	1.41947	-1.42174	0.8033	-0.50776	1.03721	0.0355751	0.084234	-0.179886	0.577395	-0.158804	0	0	0.223503	-0.0934916	-0.283715	1.01547	-0.108149	0	0	-0.399534	0.153822	0.394925	-0.29761	-0.70455	-0.189989	1.84685	0.310285	0	0	0.498571	-0.4625	0.553063	1.17263	0.665061	0	0
0.22	2.98064	1.42009	-1.42413	0.802955	-0.4977	1.0382	0.0202965	0.0828237	-0.184221	0.566875	-0.159326	0	0	0.230782	-0.0978305	-0.305821	0.97203	-0.119553	0	0	-0.39764	0.153537	0.39731	-0.296747	-0.705279	-0.189727	1.84752	0.308283	0	0	0.497323	-0.461424	0.549962	1.17297	0.665954	0	0
0.23	2.98231	1.42127	-1.4279	0.802436	-0.487662	1.0389	0.00588682	0.0807652	-0.18898	0.55823	-0.159246	0	0	0.237099	-0.0993531	-0.323856	0.92478	-0.132136	0	0	-0.394535	0.153253	0.398075	-0.295346	-0.70647	-0.188656	1.84745	0.306945	0	0	0.496164	-0.460538	0.547043	1.17274	0.666585	0	0
0.24	2.98529	1.42358	-1.43232	0.801807	-0.477658	1.03932	-0.00660914	0.0785641	-0.192737	0.550698	-0.158805	0	0	0.243216	-0.0983096	-0.337874	0.873854	-0.144684	0	0	-0.389863	0.152908	0.39759	-0.293213	-0.707288	-0.186978	1.84676	0.306982	0	0	0.494943	-0.45991	0.544285	1.17206	0.666634	0	0
0.25	2.98729	1.42751	-1.43594	0.801193	-0.467597	1.03941	-0.016491	0.0766522	-0.194332	0.544498	-0.157679	0	0	0.2495	-0.0956596	-0.349123	0.819405	-0.157903	0	0	-0.383029	0.152454	0.396493	-0.2903	-0.707277	-0.184379	1.84546	0.308003	0	0	0.493009	-0.459493	0.540927	1.17101	0.66547	0	0
0.26	2.98669	1.43312	-1.43686	0.800566	-0.45745	1.0391	-0.0236628	0.075243	-0.193739	0.540177	-0.15511	0	0	0.25602	-0.0912959	-0.355899	0.762015	-0.169907	0	0	-0.374075	0.152066	0.394751	-0.286835	-0.706653	-0.180754	1.84377	0.310321	0	0	0.490753	-0.459487	0.537581	1.16991	0.664014	0	0
0.27	2.98342	1.43957	-1.43418	0.799813	-0.447321	1.03841	-0.0289246	0.0742278	-0.192758	0.537759	-0.151402	0	0	0.262438	-0.0848417	-0.356846	0.701747	-0.180913	0	0	-0.363794	0.152235	0.392014	-0.2831	-0.705952	-0.176603	1.84198	0.314676	0	0	0.488559	-0.459962	0.534666	1.16858	0.664577	0	0
0.28	2.97686	1.44861	-1.42609	0.798721	-0.437026	1.03724	-0.030497	0.0726154	-0.194675	0.537627	-0.146895	0	0	0.270851	-0.0760196	-0.350503	0.640741	-0.189435	0	0	-0.349682	0.153465	0.387174	-0.280416	-0.704421	-0.172708	1.84032	0.317103	0	0	0.485726	-0.460085	0.532049	1.16629	0.666528	0	0
0.29	2.96792	1.45596	-1.41743	0.797883	-0.426724	1.03598	-0.0331776	0.0716311	-0.193672	0.538604	-0.141772	0	0	0.275456	-0.0680376	-0.345123	0.578001	-0.196458	0	0	-0.337314	0.154324	0.383699	-0.276751	-0.703294	-0.167644	1.83822	0.318278	0	0	0.483121	-0.460563	0.529492	1.16395	0.66827	0	0
0.3	2.95094	1.46264	-1.40219	0.797145	-0.416386	1.03451	-0.0359989	0.0717498	-0.189823	0.540112	-0.136442	0	0	0.27815	-0.0614438	-0.340446	0.515151	-0.201715	0	0	-0.325821	0.155406	0.38174	-0.27341	-0.702876	-0.16252	1.83643	0.318819	0	0	0.479759	-0.461732	0.525908	1.16335	0.666766	0	0
0.31	2.92528	1.46963	-1.37894	0.796389	-0.405902	1.03272	-0.037771	0.0722515	-0.185536	0.542716	-0.130557	0	0	0.280748	-0.0560176	-0.335577	0.453884	-0.206259	0	0	-0.313534	0.157143	0.380512	-0.270762	-0.703001	-0.157231	1.83475	0.319015	0	0	0.476107	-0.462994	0.522733	1.16249	0.66557	0	0
0.32	2.89647	1.47605	-1.3525	0.79553	-0.39535	1.03069	-0.0392037	0.0722536	-0.182031	0.547325	-0.124165	0	0	0.2831	-0.0513431	-0.331439	0.396109	-0.210523	0	0	-0.301655	0.159115	0.379347	-0.268557	-0.703384	-0.152196	1.83345	0.318662	0	0	0.472604	-0.463697	0.519699	1.16126	0.663922	0	0
0.33	2.86394	1.48207	-1.32304	0.794666	-0.384652	1.02847	-0.0408281	0.0718618	-0.178418	0.553274	-0.117556	0	0	0.285473	-0.0480459	-0.329674	0.343284	-0.215377	0	0	-0.289992	0.161014	0.378883	-0.266797	-0.703478	-0.147559	1.83246	0.316783	0	0	0.469213	-0.464559	0.517426	1.1601	0.662608	0	0
0.34	2.83026	1.48826	-1.29368	0.793905	-0.373716	1.02608	-0.0422705	0.0710426	-0.173455	0.559455	-0.110654	0	0	0.288633	-0.0462142	-0.331464	0.297191	-0.220912	0	0	-0.277794	0.162182	0.379539	-0.265631	-0.702913	-0.143192	1.83149	0.313004	0	0	0.465681	-0.465665	0.515693	1.1588	0.662067	0	0
0.35	2.80302	1.4931	-1.27089	0.793021	-0.36269	1.02365	-0.0453424	0.0693547	-0.168912	0.565532	-0.103887	0	0	0.291318	-0.0448097	-0.334947	0.258693	-0.227707	0	0	-0.267181	0.162845	0.380637	-0.265116	-0.702976	-0.139269	1.8304	0.310293	0	0	0.462734	-0.466541	0.514563	1.15736	0.661467	0	0
0.36	2.78772	1.49568	-1.25988	0.792018	-0.351646	1.02131	-0.051452	0.0669653	-0.164678	0.570584	-0.0984835	0	0	0.293103	-0.0439043	-0.340883	0.229865	-0.23426	0	0	-0.259665	0.162967	0.38198	-0.264931	-0.703298	-0.13628	1.82969	0.309138	0	0	0.46095	-0.467237	0.514317	1.15598	0.660738	0	0
0.37	2.78803	1.49666	-1.26443	0.791024	-0.340476	1.01909	-0.0606395	0.0639139	-0.160427	0.574094	-0.0931362	0	0	0.293961	-0.0435514	-0.348391	0.21057	-0.24076	0	0	-0.254118	0.162163	0.38343	-0.264672	-0.703625	-0.133227	1.82864	0.308161	0	0	0.45985	-0.467857	0.514707	1.15423	0.65919	0	0
